<?xml version="1.0" encoding="iso-8859-1"?>
<!-- Generator: Adobe Illustrator 19.0.0, SVG Export Plug-In . SVG Version: 6.00 Build 0)  -->
<svg version="1.1" id="Layer_1" xmlns="http://www.w3.org/2000/svg" xmlns:xlink="http://www.w3.org/1999/xlink" x="0px" y="0px"
	 viewBox="0 0 512.001 512.001" style="enable-background:new 0 0 512.001 512.001;" xml:space="preserve">
<path style="fill:#9AD14B;" d="M432.591,79.409v-1.471c0-43.043-34.893-77.938-77.938-77.938l0,0
	c-43.043,0-77.938,34.894-77.938,77.938v1.471v81.274c0,11.442-9.274,20.716-20.716,20.716l0,0
	c-11.442,0-20.716-9.274-20.716-20.716V79.409v-1.471c0-43.043-34.894-77.938-77.938-77.938l0,0
	c-43.043,0-77.938,34.894-77.938,77.938v1.471h-1.471C34.894,79.409,0,114.303,0,157.347l0,0c0,43.043,34.894,77.938,77.938,77.938
	h1.471h81.274c11.442,0,20.716,9.274,20.716,20.716l0,0c0,11.442-9.274,20.716-20.716,20.716H79.409h-1.471
	C34.894,276.717,0,311.611,0,354.654l0,0c0,43.043,34.894,77.938,77.938,77.938h1.471v1.471c0,43.043,34.894,77.938,77.938,77.938
	l0,0c43.043,0,77.938-34.894,77.938-77.938v-1.471v-81.274c0-11.442,9.274-20.716,20.716-20.716l0,0
	c11.442,0,20.716,9.274,20.716,20.716v81.274v1.465c-0.003,43.046,34.892,77.942,77.938,77.942l0,0
	c43.044,0,77.938-34.894,77.938-77.938v-1.471h1.471c43.043,0,77.938-34.894,77.938-77.938l0,0
	c0-43.046-34.897-77.941-77.942-77.938h-1.465h-81.274c-11.442,0-20.716-9.274-20.716-20.716l0,0
	c0-11.442,9.274-20.716,20.716-20.716h81.274h1.471c43.044,0,77.938-34.894,77.938-77.938l0,0c0-43.043-34.894-77.938-77.938-77.938
	h-1.472V79.409z"/>
<path style="fill:#90BC42;" d="M270.378,256.765l122.941-122.432c3.98-3.962,3.992-10.399,0.03-14.378
	c-3.963-3.978-10.401-3.992-14.376-0.03L256.03,242.358L133.598,119.416c-3.963-3.978-10.399-3.991-14.378-0.03
	c-3.978,3.962-3.992,10.399-0.03,14.378l122.432,122.941L118.68,379.137c-3.978,3.962-3.992,10.399-0.03,14.378
	c1.987,1.994,4.595,2.993,7.203,2.993c2.594,0,5.19-0.988,7.173-2.963l122.941-122.432l122.432,122.941
	c1.987,1.994,4.595,2.993,7.203,2.993c2.594,0,5.19-0.988,7.173-2.963c3.98-3.962,3.992-10.399,0.03-14.378L270.378,256.765z"/>
<g>
</g>
<g>
</g>
<g>
</g>
<g>
</g>
<g>
</g>
<g>
</g>
<g>
</g>
<g>
</g>
<g>
</g>
<g>
</g>
<g>
</g>
<g>
</g>
<g>
</g>
<g>
</g>
<g>
</g>
</svg>
