<?xml version="1.0" encoding="iso-8859-1"?>
<!-- Generator: Adobe Illustrator 19.0.0, SVG Export Plug-In . SVG Version: 6.00 Build 0)  -->
<svg version="1.1" id="Layer_1" xmlns="http://www.w3.org/2000/svg" xmlns:xlink="http://www.w3.org/1999/xlink" x="0px" y="0px"
	 viewBox="0 0 512 512" style="enable-background:new 0 0 512 512;" xml:space="preserve">
<path style="fill:#FFDE33;" d="M256,151L256,151c-8.284,0-15-6.716-15-15V15c0-8.284,6.716-15,15-15l0,0c8.284,0,15,6.716,15,15v121
	C271,144.284,264.284,151,256,151z"/>
<path style="fill:#FFBC33;" d="M271,136V15c0-8.286-6.716-15-15-15v151C264.284,151,271,144.284,271,136z"/>
<path style="fill:#FFDE33;" d="M286,60h-60c-8.291,0-15-6.709-15-15s6.709-15,15-15h60c8.291,0,15,6.709,15,15S294.291,60,286,60z"
	/>
<path style="fill:#FFBC33;" d="M286,30h-30v30h30c8.291,0,15-6.709,15-15S294.291,30,286,30z"/>
<path style="fill:#F9BC35;" d="M511.048,204.701c-5.654-41.06-38.013-74.824-78.662-82.104c-13.16-2.349-26.424-1.304-39.218,1.56
	C374.01,103.852,346.053,91,316,91c-15.601,0-31.199,3.6-45,10.199c-5.4,2.401-10.201,5.4-15,8.701c-4.799-3.301-9.6-6.301-15-8.701
	C227.199,94.6,211.601,91,196,91c-30.053,0-57.01,12.852-76.168,33.155c-12.775-2.862-26.03-3.907-39.232-1.558
	c-40.635,7.28-72.993,41.045-78.794,83.247c-2.637,20.698,3.003,44.008,15.879,63.783h477.631
	C508.191,249.852,513.831,226.542,511.048,204.701z"/>
<path style="fill:#EC7838;" d="M511.048,204.701c-5.654-41.06-38.013-74.824-78.662-82.104c-13.16-2.349-26.424-1.304-39.218,1.56
	C374.01,103.852,346.053,91,316,91c-15.601,0-31.199,3.6-45,10.199c-5.4,2.401-10.201,5.4-15,8.701c-4.799-3.301-9.6-6.301-15-8.701
	C227.199,94.6,211.601,91,196,91c-30.053,0-57.01,12.852-76.168,33.155c-12.775-2.862-26.03-3.907-39.232-1.558
	c-40.635,7.28-72.993,41.045-78.794,83.247c-2.637,20.698,3.003,44.008,15.879,63.783h477.631
	C508.191,249.852,513.831,226.542,511.048,204.701z"/>
<path style="fill:#DB632C;" d="M495.315,269.627c12.876-19.775,18.516-43.085,15.732-64.926
	c-5.654-41.06-38.013-74.824-78.662-82.104c-13.16-2.349-26.424-1.304-39.218,1.56C374.01,103.852,346.053,91,316,91
	c-15.601,0-31.199,3.6-45,10.199c-5.4,2.401-10.201,5.4-15,8.701v159.727H495.315z"/>
<rect x="30" y="302" style="fill:#F9BC35;" width="451" height="150"/>
<rect x="256" y="302" style="fill:#F39E31;" width="225" height="150"/>
<path style="fill:#E55639;" d="M256,452c-25.649,0-45-32.241-45-75s19.351-75,45-75s45,32.241,45,75S281.649,452,256,452z"/>
<g>
	<circle style="fill:#CF4529;" cx="346" cy="377" r="15"/>
	<circle style="fill:#CF4529;" cx="407" cy="377" r="15"/>
</g>
<g>
	<circle style="fill:#E55639;" cx="105" cy="377" r="15"/>
	<circle style="fill:#E55639;" cx="166" cy="377" r="15"/>
	<path style="fill:#E55639;" d="M36.784,242c-4.612-10.573-6.469-22.559-5.125-33.197c3.853-27.905,26.66-51.738,54.229-56.675
		c5.231-0.925,10.384-1.058,15.487-0.846C94.909,164.9,91,179.949,91,196c0,15.76,3.968,32.005,10.653,46H36.784z"/>
	<path style="fill:#E55639;" d="M241,242H136.416C126.658,229.032,121,212.45,121,196c0-41.4,33.6-75,75-75c16.5,0,32.1,5.4,45,15
		V242z"/>
</g>
<g>
	<path style="fill:#CF4529;" d="M377.584,242H272V136c12.9-9.6,28.5-15,45-15c41.4,0,76,33.6,76,75
		C393,212.45,387.342,229.032,377.584,242z"/>
	<path style="fill:#CF4529;" d="M477.223,242h-64.876C419.032,228.005,423,211.76,423,196c0-16.06-3.913-31.113-10.386-44.736
		c5.094-0.214,10.239-0.081,15.483,0.864c27.583,4.937,50.391,28.77,54.331,57.495C483.709,219.654,481.834,231.477,477.223,242z"/>
	<path style="fill:#CF4529;" d="M301,377c0-42.759-19.351-75-45-75v150C281.649,452,301,419.759,301,377z"/>
</g>
<path style="fill:#FFDE33;" d="M512,272c0-16.569-13.431-30-30-30H30c-16.569,0-30,13.431-30,30l0,0c0,16.569,13.431,30,30,30h452
	C498.569,302,512,288.569,512,272L512,272z"/>
<path style="fill:#FFBC33;" d="M482,242H256v60h226c16.569,0,30-13.431,30-30l0,0C512,255.431,498.569,242,482,242z"/>
<path style="fill:#FFDE33;" d="M512,482c0-16.569-13.431-30-30-30H30c-16.569,0-30,13.431-30,30l0,0c0,16.569,13.431,30,30,30h452
	C498.569,512,512,498.569,512,482L512,482z"/>
<path style="fill:#FFBC33;" d="M482,452H256v60h226c16.569,0,30-13.431,30-30l0,0C512,465.431,498.569,452,482,452z"/>
<g>
</g>
<g>
</g>
<g>
</g>
<g>
</g>
<g>
</g>
<g>
</g>
<g>
</g>
<g>
</g>
<g>
</g>
<g>
</g>
<g>
</g>
<g>
</g>
<g>
</g>
<g>
</g>
<g>
</g>
</svg>
